<svg
    width="120"
    height="90"
    viewBox="0 0 120 90"
    fill="none"
    xmlns="http://www.w3.org/2000/svg"
>
    <path
        d="M108.75 90H11.25C8.125 90 5.46875 88.9062 3.28125 86.7188C1.09375 84.5312 0 81.875 0 78.75V11.25C0 8.125 1.09375 5.46875 3.28125 3.28125C5.46875 1.09375 8.125 0 11.25 0H108.75C111.875 0 114.531 1.09375 116.719 3.28125C118.906 5.46875 120 8.125 120 11.25V78.75C120 81.875 118.906 84.5312 116.719 86.7188C114.531 88.9062 111.875 90 108.75 90ZM35.3906 17.1094C32.8906 14.4531 29.8438 13.125 26.25 13.125C22.6562 13.125 19.5312 14.4531 16.875 17.1094C14.375 19.6094 13.125 22.6562 13.125 26.25C13.125 29.8438 14.375 32.9688 16.875 35.625C19.5312 38.125 22.6562 39.375 26.25 39.375C29.8438 39.375 32.8906 38.125 35.3906 35.625C38.0469 32.9688 39.375 29.8438 39.375 26.25C39.375 22.6562 38.0469 19.6094 35.3906 17.1094ZM15 75H105V48.75L84.375 28.125C83.125 26.875 81.875 26.875 80.625 28.125L48.75 60L35.625 46.875C34.375 45.625 33.125 45.625 31.875 46.875L15 63.75V75Z"
        fill="#DCDCEF"
    />
</svg>